<?xml version="1.0" encoding="utf-8"?>
<!-- Generator: Adobe Illustrator 17.1.0, SVG Export Plug-In . SVG Version: 6.00 Build 0)  -->
<!DOCTYPE svg PUBLIC "-//W3C//DTD SVG 1.1//EN" "http://www.w3.org/Graphics/SVG/1.1/DTD/svg11.dtd">
<svg version="1.1" id="Layer_1" xmlns="http://www.w3.org/2000/svg" xmlns:xlink="http://www.w3.org/1999/xlink" x="0px" y="0px"
	 viewBox="0 0 300 310.853" enable-background="new 0 0 300 310.853" xml:space="preserve">
<g class="sprite" id="sprite-logo-normal">
	<polygon fill="#4D4D4D" points="300,290.853 144.946,310.853 0,290.853 0,0 300,0 	"/>
	<g>
		<g>
			<path fill="#FFBE7D" d="M80.639,74.629c-1.575,5.731-2.854,11.586-3.777,17.232c-1.354,8.287-0.892,17.268,2.145,25.183
				c3.152,8.212,12.066,20.251,21.326,21.86c18.253,3.173,17.471-29.07,16.913-39.447c-0.685-12.735-1.07-25.719-3.007-38.339
				c-1.039-6.769-4.373-13.962-12.176-14.606C87.846,45.338,83.505,64.198,80.639,74.629z"/>
			<path fill="#FFA53F" d="M185.221,73.513c1.052-6.441,2.659-14.615,7.139-19.601c5.873-6.537,14.695-3.845,19.639,2.353
				c3.412,4.277,5.771,10.248,6.927,15.57c3.038,13.988,4.752,28.846,3.79,43.15c-0.571,8.496-2.318,17.37-5.235,25.389
				c-2.238,6.151-5.223,12.551-8.909,17.98c-4.663,6.868-11.702,13.381-18.927,17.422c-7.729,4.323-16.497,6.195-25.215,7.222
				c-4.989,0.588-10.037,1.018-15.056,1.237c-8.305,0.362-16.665,0.326-24.922-0.726c-10.95-1.395-21.9-5.109-30.063-12.799
				c-3.689-3.475-7.032-7.999-9.303-12.539c-3.089-6.177-5.595-13.508-6.734-20.333c-2.123-12.725-2.507-32.654-2.212-37.695
				c0.616,4.388,3.216,9.573,5.55,12.99c2.834,4.149,7.532,7.399,12.744,6.494c5.531-0.96,10.028-5.492,14.736-8.213
				c8.498-4.911,18.617-7.606,28.156-4.174c8.067,2.903,15.222,8.926,23.97,9.811c17.186,1.74,20.309-17.279,22.163-29.93
				C183.893,84.167,184.319,79.034,185.221,73.513z"/>
			<g>
				<g>
					<path fill="#D37B2F" d="M149.374,184.234c5.019-0.219,10.067-0.649,15.056-1.237c8.718-1.027,17.486-2.899,25.215-7.222
						c5.037-2.817,9.98-6.837,14.094-11.339c0.893-1.039,1.77-2.083,2.618-3.129c-2.658,3.279-10.902,6.888-14.757,8.305
						c-14.605,5.365-30.552,7.237-46.052,6.511c-4.591-0.215-9.151-0.679-13.632-1.741c-4.926-1.168-10.135-3.251-14.321-6.148
						c-10.252-7.095-17.53-18.72-20.71-30.668c-0.42-1.578-3.215-17.791-2.14-18.005c-0.104,0.021-0.206,0.049-0.31,0.067
						c-5.212,0.905-9.91-2.346-12.744-6.494c-2.335-3.418-4.934-8.602-5.55-12.99c-0.295,5.041,0.089,24.97,2.212,37.695
						c1.139,6.825,3.645,14.157,6.734,20.333c2.27,4.54,5.614,9.064,9.303,12.539c8.163,7.69,19.113,11.404,30.063,12.799
						C132.709,184.56,141.069,184.596,149.374,184.234z"/>
				</g>
				<path fill="#D37B2F" d="M125.891,183.681c0,0,10.306,0.761,16.026,5.088c-0.711-5.232-5.016-8.655-6.138-8.655"/>
				<path fill="#D37B2F" d="M83.253,154.241c1.668,4.132,4.973,8.88,6.532,17.615c2.53-9.043,10.439-4.716,3.603-24.061
					C89.629,149.754,83.253,154.241,83.253,154.241z"/>
				<path fill="#D37B2F" d="M100.518,175.461c0,0,6.139,4.233,8.723,6.818c1.593-1.412,2.74-1.278,6.729-0.355
					C113.128,177.302,100.518,175.461,100.518,175.461z"/>
			</g>
			<path fill="#FFA53F" d="M105.444,155.973c0,0,1.546,2.253,1.318,5.121c0.979-0.677,1.618-2.843,1.542-4.227
				C108.229,155.482,105.444,155.973,105.444,155.973z"/>
		</g>
		<g>
			
				<path fill="none" stroke="#C9E7F2" stroke-width="0.9448" stroke-linecap="round" stroke-linejoin="round" stroke-miterlimit="10" d="
				M42.218,214.076c0,0,0,25.547,0,34.317c6.954,0,12.144,0,12.144-8.613c0-6.785-6.662-8.452-6.662-8.452s4.805-1.678,4.805-8.91
				C52.505,214.519,48.258,214.076,42.218,214.076z"/>
			
				<path fill="none" stroke="#C9E7F2" stroke-width="0.9448" stroke-linecap="round" stroke-linejoin="round" stroke-miterlimit="10" d="
				M257.782,248.393c0-16.429-6.064-17.065-6.064-17.065s4.702-0.828,4.702-9.015c0-9.065-6.697-8.237-10.185-8.237
				c0,0,0,25.547,0,34.317"/>
			
				<path fill="none" stroke="#C9E7F2" stroke-width="0.9448" stroke-linecap="round" stroke-linejoin="round" stroke-miterlimit="10" d="
				M112.602,248.393c0-16.429-6.064-17.065-6.064-17.065s4.702-0.828,4.702-9.015c0-9.065-6.697-8.237-10.185-8.237
				c0,0,0,25.547,0,34.317"/>
			<g>
				
					<polyline fill="none" stroke="#C9E7F2" stroke-width="0.9448" stroke-linecap="round" stroke-linejoin="round" stroke-miterlimit="10" points="
					238.364,214.076 228.497,214.076 228.497,248.393 238.364,248.393 				"/>
				
					<line fill="none" stroke="#C9E7F2" stroke-width="0.9448" stroke-linecap="round" stroke-linejoin="round" stroke-miterlimit="10" x1="235.736" y1="231.235" x2="228.497" y2="231.235"/>
			</g>
			<g>
				
					<polyline fill="none" stroke="#C9E7F2" stroke-width="0.9448" stroke-linecap="round" stroke-linejoin="round" stroke-miterlimit="10" points="
					72.317,214.076 62.45,214.076 62.45,248.393 72.317,248.393 				"/>
				
					<line fill="none" stroke="#C9E7F2" stroke-width="0.9448" stroke-linecap="round" stroke-linejoin="round" stroke-miterlimit="10" x1="69.688" y1="231.235" x2="62.45" y2="231.235"/>
			</g>
			<g>
				
					<line fill="none" stroke="#C9E7F2" stroke-width="0.9448" stroke-linecap="round" stroke-linejoin="round" stroke-miterlimit="10" x1="92.57" y1="231.235" x2="79.962" y2="231.235"/>
				
					<path fill="none" stroke="#C9E7F2" stroke-width="0.9448" stroke-linecap="round" stroke-linejoin="round" stroke-miterlimit="10" d="
					M92.57,248.393v-26.919c0,0,0.696-7.398-6.294-7.398c-6.99,0-6.294,7.398-6.294,7.398v26.919"/>
			</g>
			<g>
				
					<line fill="none" stroke="#C9E7F2" stroke-width="0.9448" stroke-linecap="round" stroke-linejoin="round" stroke-miterlimit="10" x1="179.687" y1="231.235" x2="167.384" y2="231.235"/>
				
					<path fill="none" stroke="#C9E7F2" stroke-width="0.9448" stroke-linecap="round" stroke-linejoin="round" stroke-miterlimit="10" d="
					M179.687,248.393v-26.919c0,0,0.696-7.398-6.294-7.398s-6.294,7.398-6.294,7.398v26.919"/>
			</g>
			<g>
				
					<path fill="none" stroke="#C9E7F2" stroke-width="0.9448" stroke-linecap="round" stroke-linejoin="round" stroke-miterlimit="10" d="
					M188.405,248.393c0,0,0-25.595,0-29.038c0-3.442-0.859-5.28-0.859-5.28"/>
				
					<path fill="none" stroke="#C9E7F2" stroke-width="0.9448" stroke-linecap="round" stroke-linejoin="round" stroke-miterlimit="10" d="
					M201.013,248.393v-26.919c0,0,0.696-7.398-6.294-7.398s-6.294,7.398-6.294,7.398v26.919"/>
			</g>
			<g>
				
					<path fill="none" stroke="#C9E7F2" stroke-width="0.9448" stroke-linecap="round" stroke-linejoin="round" stroke-miterlimit="10" d="
					M149.383,248.393v-27.07c0,0,0.49-7.439-4.437-7.439c-4.927,0-4.436,7.439-4.436,7.439v27.07"/>
				
					<path fill="none" stroke="#C9E7F2" stroke-width="0.9448" stroke-linecap="round" stroke-linejoin="round" stroke-miterlimit="10" d="
					M158.283,248.393v-27.07c0,0,0.49-7.439-4.436-7.439s-4.437,7.439-4.437,7.439v27.07"/>
			</g>
			
				<path fill="none" stroke="#C9E7F2" stroke-width="0.9448" stroke-linecap="round" stroke-linejoin="round" stroke-miterlimit="10" d="
				M121.066,248.393c0,0,0-23.877,0-34.317c5.395,0,11.262,2.243,11.262,17.473C132.329,241.068,132.352,248.393,121.066,248.393z"
				/>
			
				<path fill="none" stroke="#C9E7F2" stroke-width="0.9448" stroke-linecap="round" stroke-linejoin="round" stroke-miterlimit="10" d="
				M220.094,215.974c-0.934-1.085-2.402-1.897-4.716-1.897c-6.99,0-6.294,7.398-6.294,7.398v19.522c0,0-0.696,7.398,6.294,7.398
				c2.314,0,3.783-0.813,4.716-1.897"/>
		</g>
	</g>
</g>
</svg>
