<?xml version="1.0" encoding="utf-8"?>
<!-- Generator: Adobe Illustrator 17.1.0, SVG Export Plug-In . SVG Version: 6.00 Build 0)  -->
<!DOCTYPE svg PUBLIC "-//W3C//DTD SVG 1.1//EN" "http://www.w3.org/Graphics/SVG/1.1/DTD/svg11.dtd">
<svg version="1.1" id="Layer_1" xmlns="http://www.w3.org/2000/svg" xmlns:xlink="http://www.w3.org/1999/xlink" x="0px" y="0px"
	 viewBox="0 0 512 512" style="enable-background:new 0 0 512 512;" xml:space="preserve">
<style type="text/css">
	.st0{fill:#38525E;}
	.st1{fill:#7FACBE;}
	.st2{fill:#437992;}
	.st3{fill:#C9E6F1;}
</style>
<g class="sprite" id="sprite-logo-normal">
	<rect id="rect3735_2_" y="0" class="st0" width="512" height="512"/>
	<g id="layer1_3_" transform="translate(0,-852.36218)">
		<g id="g3737_3_" transform="matrix(1.4168836,0,0,1.4168836,-60.960724,1213.4974)">
			<polygon id="polygon3739_3_" class="st1" points="326.7,-19.8 350.8,-48.1 257.5,-204.8 217.5,-204.8 215.7,-185.5 			"/>
			<polygon id="polygon3741_3_" class="st2" points="286.7,-19.1 326.7,-19.1 237.1,-170.2 197.1,-170.2 			"/>
			<g id="polyline3743_3_">
				<path class="st2" d="M271.7-19.9h-4.3V-22h0.5l-0.4-0.7l1.8-1.1L271.7-19.9z M263.9-19.9h-5.6V-22h5.6V-19.9z M254.8-19.9h-4.9
					V-22h4.9V-19.9z M246.3-19.9h-4.9V-22h4.9V-19.9z M237.8-19.9h-5.6V-22h5.6V-19.9z M228.6-19.9h-4.9V-22h4.9V-19.9z M220.2-19.9
					h-5.6V-22h5.6V-19.9z M211-19.9h-4.9V-22h4.9V-19.9z M202.5-19.9h-4.9V-22h4.9V-19.9z M194.1-19.9h-5.6V-22h5.6V-19.9z
					 M184.9-19.9h-4.9V-22h4.9V-19.9z M176.4-19.9h-5.6V-22h5.6V-19.9z M167.2-19.9h-4.9V-22h4.9V-19.9z M158.8-19.9h-4.9V-22h4.9
					V-19.9z M150.3-19.9h-5.6V-22h5.6V-19.9z M141.1-19.9h-4.9V-22h4.9V-19.9z M132.7-19.9H127V-22h5.6V-19.9z M123.5-19.9h-4.9V-22
					h4.9V-19.9z M265.7-25.6l-2.7-4.5l1.8-1.1l2.7,4.5L265.7-25.6z M261.2-33.1l-2.7-4.5l1.8-1.1l2.7,4.5L261.2-33.1z M256.7-40.6
					l-2.7-4.5l1.8-1.1l2.7,4.5L256.7-40.6z M252.1-48l-2.7-4.5l1.8-1.1l2.7,4.5L252.1-48z M247.6-55.5l-1.9-3.2h0v-2.1h1.2l2.5,4.2
					L247.6-55.5z M242.1-58.7h-5.6v-2.1h5.6V-58.7z M232.9-58.7h-4.9v-2.1h4.9V-58.7z M224.4-58.7h-5.6v-2.1h5.6V-58.7z M215.2-58.7
					h-4.9v-2.1h4.9V-58.7z M206.8-58.7h-4.9v-2.1h4.9V-58.7z M198.3-58.7h-5.6v-2.1h5.6V-58.7z M189.1-58.7h-4.9v-2.1h4.9V-58.7z
					 M180.7-58.7H175v-2.1h5.6V-58.7z M171.5-58.7h-4.9v-2.1h4.9V-58.7z"/>
			</g>
			<path id="path3745_3_" class="st2" d="M160.9-42.7c-2.8,5.2-9.7,12.1-18.8,16.8
				c-8.6,4.5-18.4,6.8-25.1,6.8c-7.6,0-21.2,0-21.2,0l110.1-185.6h51.6C257.5-204.8,163.7-46.9,160.9-42.7L160.9-42.7z"/>
			<path id="path3747_3_" class="st3" d="M162.3-44.6c-4.9,7.9-24.8,4.2-28.7,1.8
				c0.4,4.5-5.1,23.7-20.1,23.7c-7.6,0-17.7,0-17.7,0l110.1-185.6h51.6C257.5-204.8,165.1-48.8,162.3-44.6L162.3-44.6z"/>
		</g>
		<g>
			<path class="st3" d="M75,1228.4h10v68H75V1228.4z"/>
			<path class="st3" d="M89.4,1296.4l10.3-68H112l10.3,68h-9.7l-1.9-14H101l-1.9,14H89.4z M106.4,1250l-0.3-1.6h-0.6l-0.3,1.6
				l-2.9,21.4h6.9L106.4,1250z"/>
			<path class="st3" d="M139.2,1260.7l-0.8-3.3H138v39h-9v-68h8.6l9.7,35.2l0.8,2.8h0.9v-38h9v68h-9L139.2,1260.7z"/>
			<path class="st3" d="M177,1238.4v-10h28v10h-9v58h-10v-58H177z"/>
			<path class="st3" d="M238,1281.8c0,2.8-1,5.3-2,7.4c-0.8,1.9-2.3,3.6-4.2,5c-1.9,1.5-4.4,2.3-7.8,2.3s-6-0.8-7.8-2.3
				c-1.9-1.4-2.9-3.2-3.7-5c-1-2.1-1.5-4.6-1.5-7.4v-40.2c0-2.7,0.5-5.2,1.5-7.3c0.8-1.9,2-3.7,3.8-5.1c1.9-1.4,4.4-2.3,7.7-2.3
				s5.8,0.9,7.7,2.3c1.9,1.4,3.5,3.2,4.3,5.1c1,2.1,2,4.6,2,7.3V1281.8z M228,1241.6c0-1.9-0.7-3.2-1.6-4.3
				c-0.5-0.5-1.4-0.7-2.2-0.7c-1.8,0-2.5,1.3-2.9,2.5c-0.3,0.7-0.3,1.6-0.3,2.5v40.2c0,1.9,0.3,3.2,1.2,4.3c0.5,0.5,1,0.7,1.9,0.7
				c1.8,0,2.9-1.1,3.3-2.5c0.3-0.6,0.7-1.5,0.7-2.5V1241.6z"/>
			<path class="st3" d="M261.5,1296.4l-6.4-43l-0.4-3h0.3v46h-10v-68h12.1l5.9,31.3l0.5,3.7h0.2l0.5-3.7l5.9-31.3H283v68h-9v-46
				h-1.5l-0.4,3l-6.4,43H261.5z"/>
			<path class="st3" d="M291,1228.4h9.3c4.4,0,8.7,0.7,12.1,3.9c3.3,3.2,5.6,8.2,5.6,15.9s-1.9,12.8-5.2,16
				c-3.3,3.2-7.7,4.4-11.7,4.4v27.9h-10V1228.4z M301,1258.3c3,0,4.7-0.6,5.8-2.1c1.1-1.5,1.2-4,1.2-7.8c0-3.8,0-6.5-1.1-8.2
				c-1.1-1.7-2.9-2.4-5.9-2.4V1258.3z"/>
			<path class="st3" d="M333,1228.4v24h0.1l0.5-1.2l8.3-22.8h9.7l-9.2,22.4l10.4,45.6h-9.7l-7-29.6l-0.3-1.4h-0.3l-0.4,1.1l-2.2,5.2
				v24.7h-10v-68H333z"/>
			<path class="st3" d="M358,1228.4h10v68h-10V1228.4z"/>
			<path class="st3" d="M385.7,1260.7l-0.8-3.3h0.1v39h-9v-68h8.1l9.7,35.2l0.8,2.8h1.4v-38h9v68h-9.5L385.7,1260.7z"/>
			<path class="st3" d="M427.9,1245.9c0-2.2-0.1-4.7-0.7-6.7c-0.6-1.9-1.7-3.2-3.2-3.2c-2.6,0.1-3.4,2.8-3.4,6.8
				c0,2.3,1,4.7,2.5,7.3c1.5,2.6,3.4,5.3,5.4,8.2c2.3,3.4,4.6,7,6.4,10.4c1.8,3.4,3,7,3,10.7c0,4.5-0.7,8.8-2.9,12
				c-2.1,3.2-5.6,5.2-11,5.2c-6.4,0-10-2.4-12.1-6.1c-2-3.7-2.5-8.6-2.5-13.7l9.8-0.9c0,2.9,0.1,5.8,0.8,7.9
				c0.7,2.2,1.8,3.7,3.9,3.7c3,0,4.1-3.2,4.1-7.5c0-2.2-1.1-4.8-2.6-7.5c-0.8-1.3-1.7-2.7-2.6-4.1c-1.9-2.8-4.1-5.9-6.3-9.4
				c-2.2-3.4-3.9-7-4.9-10.6c-0.6-1.8-0.8-3.6-0.8-5.5c0-3.7,0.8-7.7,3-10.8c2.1-3,5.4-5.1,10.1-5.2c6-0.1,9.6,2.4,11.5,6
				c1.9,3.7,2.5,8.3,2.5,12.1L427.9,1245.9z"/>
		</g>
	</g>
</g>
</svg>
